<svg viewBox="0 0 940 2060" xmlns="http://www.w3.org/2000/svg" font-family="'Segoe UI',Arial,sans-serif">

<rect width="940" height="2060" fill="white"/>

<defs>
  <marker id="ah" viewBox="0 0 10 10" refX="9" refY="5" markerWidth="5" markerHeight="5" orient="auto">
    <path d="M0,1 L9,5 L0,9 Z" fill="#94a3b8"/>
  </marker>
  <marker id="ah-blue" viewBox="0 0 10 10" refX="9" refY="5" markerWidth="5" markerHeight="5" orient="auto">
    <path d="M0,1 L9,5 L0,9 Z" fill="#3b82f6"/>
  </marker>
  <marker id="ah-teal" viewBox="0 0 10 10" refX="9" refY="5" markerWidth="5" markerHeight="5" orient="auto">
    <path d="M0,1 L9,5 L0,9 Z" fill="#0d9488"/>
  </marker>
  <marker id="ah-green" viewBox="0 0 10 10" refX="9" refY="5" markerWidth="5" markerHeight="5" orient="auto">
    <path d="M0,1 L9,5 L0,9 Z" fill="#059669"/>
  </marker>
  <marker id="ah-red" viewBox="0 0 10 10" refX="9" refY="5" markerWidth="5" markerHeight="5" orient="auto">
    <path d="M0,1 L9,5 L0,9 Z" fill="#dc2626"/>
  </marker>
  <marker id="ah-purple" viewBox="0 0 10 10" refX="9" refY="5" markerWidth="5" markerHeight="5" orient="auto">
    <path d="M0,1 L9,5 L0,9 Z" fill="#7c3aed"/>
  </marker>
  <linearGradient id="hGrad" x1="0" y1="0" x2="1" y2="0">
    <stop offset="0%" stop-color="#1e40af"/>
    <stop offset="100%" stop-color="#0d9488"/>
  </linearGradient>
  <linearGradient id="neoGrad" x1="0" y1="0" x2="1" y2="0">
    <stop offset="0%" stop-color="#2563eb"/>
    <stop offset="100%" stop-color="#3b82f6"/>
  </linearGradient>
  <linearGradient id="esGrad" x1="0" y1="0" x2="1" y2="0">
    <stop offset="0%" stop-color="#059669"/>
    <stop offset="100%" stop-color="#10b981"/>
  </linearGradient>
  <filter id="sh" x="-1%" y="-1%" width="102%" height="106%">
    <feDropShadow dx="0" dy="1.5" stdDeviation="2.5" flood-opacity="0.07"/>
  </filter>
</defs>

<!-- ===== Title ===== -->
<rect x="20" y="12" width="900" height="52" rx="12" fill="url(#hGrad)" filter="url(#sh)"/>
<text x="470" y="35" text-anchor="middle" font-size="16" font-weight="700" fill="white">KG Indexing Pipeline — Graph-guided Chunk Retrieval</text>
<text x="470" y="52" text-anchor="middle" font-size="9.5" fill="#bfdbfe">문서 업로드 → 청크 분할 → LLM 추출 → Neo4j 저장 (source_chunk_ids 연결)</text>


<!-- ================================================================
     PHASE 1: 문서 파싱 &amp; 청크 분할
     ================================================================ -->
<rect x="20" y="78" width="900" height="14" rx="7" fill="#3b82f6"/>
<text x="470" y="89" text-anchor="middle" font-size="8.5" font-weight="700" fill="white">PHASE 1 — 문서 파싱 &amp; 청크 분할</text>

<!-- A: 문서 업로드 -->
<rect x="355" y="102" width="230" height="48" rx="10" fill="#eff6ff" stroke="#3b82f6" stroke-width="1.5" filter="url(#sh)"/>
<text x="470" y="122" text-anchor="middle" font-size="13" font-weight="700" fill="#1e40af">📄 문서 업로드</text>
<text x="470" y="140" text-anchor="middle" font-size="9" fill="#6b7280">PDF, DOCX, TXT …</text>

<line x1="470" y1="150" x2="470" y2="168" stroke="#94a3b8" stroke-width="1.5" marker-end="url(#ah)"/>
<text x="476" y="162" font-size="7.5" fill="#3b82f6" font-weight="600">parsing_service</text>

<!-- B: 청크 분할 -->
<rect x="335" y="170" width="270" height="48" rx="10" fill="#eff6ff" stroke="#3b82f6" stroke-width="1.5" filter="url(#sh)"/>
<text x="470" y="190" text-anchor="middle" font-size="12" font-weight="700" fill="#1e40af">📦 청크 분할</text>
<text x="470" y="207" text-anchor="middle" font-size="9" fill="#6b7280">chunk_id 부여 · 문단/문장 단위</text>

<line x1="470" y1="218" x2="470" y2="236" stroke="#94a3b8" stroke-width="1.5" marker-end="url(#ah)"/>
<text x="476" y="230" font-size="7.5" fill="#3b82f6" font-weight="600">select_chunk_list</text>

<!-- C: 청크 목록 조회 -->
<rect x="335" y="238" width="270" height="48" rx="10" fill="#eff6ff" stroke="#93c5fd" stroke-width="1" filter="url(#sh)"/>
<text x="470" y="258" text-anchor="middle" font-size="11" font-weight="700" fill="#1e40af">청크 목록 조회</text>
<text x="470" y="275" text-anchor="middle" font-size="9" fill="#6b7280">ES에서 doc별 청크 목록</text>

<line x1="470" y1="286" x2="470" y2="304" stroke="#94a3b8" stroke-width="1.5" marker-end="url(#ah)"/>
<text x="476" y="298" font-size="7.5" fill="#3b82f6" font-weight="600">_pack_chunks_for_llm</text>

<!-- D: 청크 패킹 -->
<rect x="335" y="306" width="270" height="48" rx="10" fill="#eff6ff" stroke="#93c5fd" stroke-width="1" filter="url(#sh)"/>
<text x="470" y="326" text-anchor="middle" font-size="11" font-weight="700" fill="#1e40af">청크 패킹</text>
<text x="470" y="343" text-anchor="middle" font-size="9" fill="#6b7280">chunk_ids 매핑 유지 · LLM 입력 준비</text>

<line x1="470" y1="354" x2="470" y2="372" stroke="#94a3b8" stroke-width="1.5" marker-end="url(#ah)"/>
<text x="476" y="366" font-size="7.5" fill="#8b5cf6" font-weight="600">_process_single_content</text>


<!-- ================================================================
     PHASE 2: LLM 엔티티/릴레이션 추출
     ================================================================ -->
<rect x="20" y="374" width="900" height="14" rx="7" fill="#8b5cf6"/>
<text x="470" y="385" text-anchor="middle" font-size="8.5" font-weight="700" fill="white">PHASE 2 — LLM 엔티티/릴레이션 추출</text>

<!-- E: LLM 추출 -->
<rect x="305" y="398" width="330" height="52" rx="10" fill="#faf5ff" stroke="#8b5cf6" stroke-width="1.5" filter="url(#sh)"/>
<text x="470" y="418" text-anchor="middle" font-size="12" font-weight="700" fill="#5b21b6">🤖 LLM 엔티티/릴레이션 추출</text>
<text x="470" y="436" text-anchor="middle" font-size="9" fill="#6b7280">description 없이 — 이름, 타입, 관계만 추출</text>
<rect x="596" y="400" width="35" height="14" rx="4" fill="#dc2626"/>
<text x="613" y="411" text-anchor="middle" font-size="7" font-weight="700" fill="white">변경</text>

<!-- Branch: F와 G -->
<line x1="380" y1="450" x2="380" y2="476" stroke="#94a3b8" stroke-width="1.5" marker-end="url(#ah)"/>
<line x1="470" y1="450" x2="380" y2="460" stroke="#94a3b8" stroke-width="1"/>
<text x="290" y="468" font-size="7.5" fill="#8b5cf6" font-weight="600">handle_single_entity_extraction</text>

<line x1="560" y1="450" x2="560" y2="476" stroke="#94a3b8" stroke-width="1.5" marker-end="url(#ah)"/>
<line x1="470" y1="450" x2="560" y2="460" stroke="#94a3b8" stroke-width="1"/>
<text x="566" y="468" font-size="7.5" fill="#8b5cf6" font-weight="600">handle_single_relationship_extraction</text>

<!-- F: 엔티티 파싱 -->
<rect x="260" y="478" width="240" height="52" rx="10" fill="#faf5ff" stroke="#c4b5fd" stroke-width="1" filter="url(#sh)"/>
<text x="380" y="498" text-anchor="middle" font-size="11" font-weight="700" fill="#5b21b6">엔티티 파싱</text>
<text x="380" y="515" text-anchor="middle" font-size="9" fill="#6b7280">name, type, source_chunk_ids</text>
<rect x="462" y="480" width="34" height="12" rx="3" fill="#0d9488"/>
<text x="479" y="490" text-anchor="middle" font-size="6.5" font-weight="700" fill="white">⭐</text>

<!-- G: 릴레이션 파싱 -->
<rect x="440" y="478" width="280" height="52" rx="10" fill="#faf5ff" stroke="#c4b5fd" stroke-width="1" filter="url(#sh)"/>
<text x="580" y="498" text-anchor="middle" font-size="11" font-weight="700" fill="#5b21b6">릴레이션 파싱</text>
<text x="580" y="515" text-anchor="middle" font-size="9" fill="#6b7280">src, tgt, weight, keywords, source_chunk_ids</text>
<rect x="682" y="480" width="34" height="12" rx="3" fill="#0d9488"/>
<text x="699" y="490" text-anchor="middle" font-size="6.5" font-weight="700" fill="white">⭐</text>

<!-- Arrows to merge -->
<line x1="380" y1="530" x2="380" y2="558" stroke="#94a3b8" stroke-width="1.5" marker-end="url(#ah)"/>
<text x="386" y="550" font-size="7.5" fill="#ef4444" font-weight="600">_merge_nodes</text>

<line x1="580" y1="530" x2="580" y2="558" stroke="#94a3b8" stroke-width="1.5" marker-end="url(#ah)"/>
<text x="586" y="550" font-size="7.5" fill="#ef4444" font-weight="600">_merge_edges</text>


<!-- ================================================================
     PHASE 3: 병합 &amp; 그래프 생성
     ================================================================ -->
<rect x="20" y="546" width="900" height="14" rx="7" fill="#ef4444"/>
<text x="470" y="557" text-anchor="middle" font-size="8.5" font-weight="700" fill="white">PHASE 3 — 병합 &amp; 그래프 생성 (description 요약 제거)</text>

<!-- H: 엔티티 병합 -->
<rect x="220" y="570" width="280" height="62" rx="10" fill="#fef2f2" stroke="#fca5a5" stroke-width="1.2" filter="url(#sh)"/>
<text x="360" y="590" text-anchor="middle" font-size="11" font-weight="700" fill="#991b1b">엔티티 병합</text>
<text x="360" y="606" text-anchor="middle" font-size="9" fill="#6b7280">type 투표 · source_chunk_ids 합집합</text>
<rect x="268" y="614" width="184" height="14" rx="4" fill="#fee2e2" stroke="#fca5a5" stroke-width="0.8"/>
<text x="360" y="625" text-anchor="middle" font-size="8" font-weight="700" fill="#dc2626">❌ description 요약 제거</text>

<!-- I: 릴레이션 병합 -->
<rect x="440" y="570" width="280" height="62" rx="10" fill="#fef2f2" stroke="#fca5a5" stroke-width="1.2" filter="url(#sh)"/>
<text x="580" y="590" text-anchor="middle" font-size="11" font-weight="700" fill="#991b1b">릴레이션 병합</text>
<text x="580" y="606" text-anchor="middle" font-size="9" fill="#6b7280">weight 합산 · keywords/source_chunk_ids 합집합</text>
<rect x="488" y="614" width="184" height="14" rx="4" fill="#fee2e2" stroke="#fca5a5" stroke-width="0.8"/>
<text x="580" y="625" text-anchor="middle" font-size="8" font-weight="700" fill="#dc2626">❌ description 요약 제거</text>

<!-- Arrows to J -->
<line x1="360" y1="632" x2="440" y2="660" stroke="#94a3b8" stroke-width="1.5" marker-end="url(#ah)"/>
<line x1="580" y1="632" x2="500" y2="660" stroke="#94a3b8" stroke-width="1.5" marker-end="url(#ah)"/>

<!-- J: NetworkX 서브그래프 -->
<rect x="340" y="662" width="260" height="48" rx="10" fill="#f8fafc" stroke="#94a3b8" stroke-width="1" filter="url(#sh)"/>
<text x="470" y="682" text-anchor="middle" font-size="11" font-weight="700" fill="#334155">NetworkX 서브그래프 생성</text>
<text x="470" y="699" text-anchor="middle" font-size="9" fill="#6b7280">generate_subgraph</text>

<line x1="470" y1="710" x2="470" y2="728" stroke="#94a3b8" stroke-width="1.5" marker-end="url(#ah)"/>
<text x="476" y="722" font-size="7.5" fill="#64748b" font-weight="600">collect_subgraphs</text>

<!-- K: 서브그래프 리스트 -->
<rect x="355" y="730" width="230" height="38" rx="10" fill="#f8fafc" stroke="#94a3b8" stroke-width="1" filter="url(#sh)"/>
<text x="470" y="754" text-anchor="middle" font-size="11" font-weight="700" fill="#334155">서브그래프 리스트</text>

<line x1="470" y1="768" x2="470" y2="786" stroke="#94a3b8" stroke-width="1.5" marker-end="url(#ah)"/>
<text x="476" y="780" font-size="7.5" fill="#64748b" font-weight="600">merge_subgraphs_batch</text>


<!-- ================================================================
     PHASE 4: 전역 그래프 병합 + PageRank
     ================================================================ -->
<rect x="20" y="788" width="900" height="14" rx="7" fill="#0d9488"/>
<text x="470" y="799" text-anchor="middle" font-size="8.5" font-weight="700" fill="white">PHASE 4 — 전역 그래프 병합 + PageRank</text>

<!-- L: 전역 그래프 병합 -->
<rect x="305" y="812" width="330" height="52" rx="10" fill="#f0fdfa" stroke="#0d9488" stroke-width="1.8" filter="url(#sh)"/>
<text x="470" y="832" text-anchor="middle" font-size="13" font-weight="700" fill="#0f766e">전역 그래프 병합</text>
<text x="470" y="850" text-anchor="middle" font-size="9.5" fill="#6b7280">+ PageRank 계산 · source_chunk_ids 전파</text>


<!-- ================================================================
     PHASE 5: 저장 (Neo4j + ES)
     ================================================================ -->
<rect x="20" y="878" width="900" height="14" rx="7" fill="url(#neoGrad)"/>
<text x="470" y="889" text-anchor="middle" font-size="8.5" font-weight="700" fill="white">PHASE 5 — 저장 (Neo4j 주요 저장소 + ES 보조)</text>

<!-- 분기선: L → M, N, O, P, Q, S -->
<!-- 중앙에서 6방향으로 -->
<line x1="470" y1="864" x2="470" y2="880" stroke="#94a3b8" stroke-width="1"/>

<!-- 가이드 수평선 -->
<line x1="120" y1="906" x2="820" y2="906" stroke="#cbd5e1" stroke-width="1" stroke-dasharray="3,3"/>

<!-- Branch lines down -->
<line x1="120" y1="906" x2="120" y2="926" stroke="#3b82f6" stroke-width="1.5" marker-end="url(#ah-blue)"/>
<line x1="310" y1="906" x2="310" y2="926" stroke="#3b82f6" stroke-width="1.5" marker-end="url(#ah-blue)"/>
<line x1="500" y1="906" x2="500" y2="926" stroke="#3b82f6" stroke-width="1.5" marker-end="url(#ah-blue)"/>
<line x1="690" y1="906" x2="690" y2="926" stroke="#3b82f6" stroke-width="1.5" marker-end="url(#ah-blue)"/>

<!-- Labels above each -->
<text x="120" y="920" text-anchor="middle" font-size="7" fill="#3b82f6" font-weight="600">neo4j_save_entities</text>
<text x="310" y="920" text-anchor="middle" font-size="7" fill="#3b82f6" font-weight="600">neo4j_save_relationships</text>
<text x="500" y="920" text-anchor="middle" font-size="7" fill="#3b82f6" font-weight="600">save_graph_json</text>
<text x="690" y="920" text-anchor="middle" font-size="7" fill="#3b82f6" font-weight="600">save_subgraph_json</text>

<!-- M: Neo4j Entity 노드 -->
<rect x="30" y="928" width="180" height="90" rx="10" fill="#dbeafe" stroke="#3b82f6" stroke-width="1.8" filter="url(#sh)"/>
<text x="120" y="948" text-anchor="middle" font-size="10" font-weight="700" fill="#1e40af">🔵 Neo4j</text>
<text x="120" y="963" text-anchor="middle" font-size="10" font-weight="700" fill="#1e40af">Entity 노드</text>
<text x="42" y="980" font-size="8" fill="#6b7280">name, type, kb_id</text>
<text x="42" y="993" font-size="8" font-weight="600" fill="#dc2626">source_chunk_ids ⭐</text>
<text x="42" y="1006" font-size="8" fill="#6b7280">pagerank, rank</text>

<!-- N: Neo4j RELATES_TO -->
<rect x="220" y="928" width="180" height="90" rx="10" fill="#dbeafe" stroke="#3b82f6" stroke-width="1.8" filter="url(#sh)"/>
<text x="310" y="948" text-anchor="middle" font-size="10" font-weight="700" fill="#1e40af">🔵 Neo4j</text>
<text x="310" y="963" text-anchor="middle" font-size="10" font-weight="700" fill="#1e40af">RELATES_TO 관계</text>
<text x="232" y="980" font-size="8" fill="#6b7280">weight, keywords, kb_id</text>
<text x="232" y="993" font-size="8" font-weight="600" fill="#dc2626">source_chunk_ids ⭐</text>
<text x="232" y="1006" font-size="8" fill="#6b7280">created_at</text>

<!-- O: Neo4j KBGraph -->
<rect x="410" y="928" width="180" height="90" rx="10" fill="#dbeafe" stroke="#3b82f6" stroke-width="1.5" filter="url(#sh)"/>
<text x="500" y="948" text-anchor="middle" font-size="10" font-weight="700" fill="#1e40af">🔵 Neo4j</text>
<text x="500" y="963" text-anchor="middle" font-size="10" font-weight="700" fill="#1e40af">KBGraph 메타</text>
<text x="422" y="980" font-size="8" fill="#6b7280">kb_id</text>
<text x="422" y="993" font-size="8" fill="#6b7280">source_id: [String]</text>
<text x="422" y="1006" font-size="8" fill="#6b7280">graph_json</text>

<!-- P: Neo4j SubGraph -->
<rect x="600" y="928" width="180" height="90" rx="10" fill="#dbeafe" stroke="#3b82f6" stroke-width="1.5" filter="url(#sh)"/>
<text x="690" y="948" text-anchor="middle" font-size="10" font-weight="700" fill="#1e40af">🔵 Neo4j</text>
<text x="690" y="963" text-anchor="middle" font-size="10" font-weight="700" fill="#1e40af">SubGraph 메타</text>
<text x="612" y="980" font-size="8" fill="#6b7280">kb_id</text>
<text x="612" y="993" font-size="8" fill="#6b7280">doc_id</text>
<text x="612" y="1006" font-size="8" fill="#6b7280">graph_json</text>


<!-- ================================================================
     ES 보조 저장소 (커뮤니티 + 엔티티 벡터)
     ================================================================ -->
<!-- 분기선: L → Q, S -->
<line x1="470" y1="864" x2="470" y2="880" stroke="#94a3b8" stroke-width="1"/>

<!-- Q/R branch (커뮤니티) -->
<line x1="820" y1="906" x2="820" y2="1042" stroke="#059669" stroke-width="1.5" marker-end="url(#ah-green)"/>
<text x="826" y="960" font-size="7" fill="#059669" font-weight="600">extract_community</text>
<text x="826" y="972" font-size="7" fill="#6b7280">(선택)</text>

<!-- Q: 커뮤니티 리포트 -->
<rect x="790" y="928" width="130" height="42" rx="8" fill="#f0fdf4" stroke="#a7f3d0" stroke-width="1" filter="url(#sh)"/>
<text x="855" y="948" text-anchor="middle" font-size="9" font-weight="700" fill="#065f46">커뮤니티</text>
<text x="855" y="962" text-anchor="middle" font-size="9" font-weight="700" fill="#065f46">리포트 생성</text>

<line x1="855" y1="970" x2="855" y2="988" stroke="#059669" stroke-width="1.2"/>

<!-- R: ES community_report -->
<rect x="790" y="1044" width="130" height="50" rx="8" fill="#d1fae5" stroke="#059669" stroke-width="1.5" filter="url(#sh)"/>
<text x="855" y="1062" text-anchor="middle" font-size="9" font-weight="700" fill="#065f46">📗 ES</text>
<text x="855" y="1076" text-anchor="middle" font-size="8" fill="#047857">community_report</text>
<text x="855" y="1088" text-anchor="middle" font-size="7.5" fill="#6b7280">텍스트 검색용 유지</text>
<text x="832" y="1038" font-size="7" fill="#059669" font-weight="600">ES bulk insert</text>


<!-- S: ES entity 벡터 (선택적) -->
<line x1="120" y1="1018" x2="120" y2="1042" stroke="#059669" stroke-width="1.2" stroke-dasharray="5,3" marker-end="url(#ah-green)"/>
<text x="126" y="1036" font-size="7" fill="#059669" font-weight="600">엔티티 임베딩 (Option A)</text>

<rect x="30" y="1044" width="180" height="50" rx="8" fill="#d1fae5" stroke="#059669" stroke-width="1.2" stroke-dasharray="5,3" filter="url(#sh)"/>
<text x="120" y="1062" text-anchor="middle" font-size="9" font-weight="700" fill="#065f46">📗 ES</text>
<text x="120" y="1076" text-anchor="middle" font-size="8" fill="#047857">entity 벡터 인덱스</text>
<text x="120" y="1088" text-anchor="middle" font-size="7.5" fill="#6b7280">벡터 검색용 경량 유지</text>
<rect x="170" y="1046" width="36" height="12" rx="3" fill="#f59e0b"/>
<text x="188" y="1056" text-anchor="middle" font-size="6.5" font-weight="700" fill="white">Option</text>


<!-- ================================================================
     Neo4j 스키마 상세
     ================================================================ -->
<rect x="20" y="1120" width="900" height="16" rx="8" fill="#1e293b"/>
<text x="470" y="1132" text-anchor="middle" font-size="9.5" font-weight="700" fill="white">Neo4j 스키마 상세 — source_chunk_ids 연결 구조</text>

<rect x="20" y="1140" width="900" height="380" rx="10" fill="#f8fafc" stroke="#cbd5e1" stroke-width="1"/>

<!-- Entity Node Schema -->
<rect x="35" y="1155" width="270" height="14" rx="4" fill="url(#neoGrad)"/>
<text x="170" y="1166" text-anchor="middle" font-size="8.5" font-weight="700" fill="white">(:Entity) 노드 스키마</text>

<rect x="35" y="1173" width="270" height="184" rx="8" fill="#dbeafe" stroke="#3b82f6" stroke-width="1.5"/>
<text x="50" y="1194" font-size="10" font-weight="700" fill="#1e40af">(:Entity {</text>
<text x="66" y="1212" font-size="9" fill="#334155">name: <tspan fill="#059669">String</tspan></text>
<text x="200" y="1212" font-size="7.5" fill="#9ca3af">— 정규화된 엔티티명</text>
<text x="66" y="1228" font-size="9" fill="#334155">entity_type: <tspan fill="#059669">String</tspan></text>
<text x="200" y="1228" font-size="7.5" fill="#9ca3af">— 엔티티 유형</text>
<text x="66" y="1244" font-size="9" fill="#334155">kb_id: <tspan fill="#059669">String</tspan></text>
<text x="200" y="1244" font-size="7.5" fill="#9ca3af">— 지식베이스 ID</text>
<text x="66" y="1260" font-size="9" fill="#334155">source_id: <tspan fill="#059669">[String]</tspan></text>
<text x="200" y="1260" font-size="7.5" fill="#9ca3af">— 원본 문서 ID 목록</text>

<!-- source_chunk_ids 강조 -->
<rect x="50" y="1268" width="244" height="18" rx="4" fill="#fee2e2" stroke="#fca5a5" stroke-width="1"/>
<text x="66" y="1282" font-size="9" font-weight="700" fill="#dc2626">source_chunk_ids: <tspan fill="#991b1b">[String]</tspan></text>
<text x="218" y="1282" font-size="7.5" fill="#dc2626">⭐ 신규</text>

<text x="66" y="1300" font-size="9" fill="#334155">pagerank: <tspan fill="#059669">Float</tspan></text>
<text x="200" y="1300" font-size="7.5" fill="#9ca3af">— PageRank 점수</text>
<text x="66" y="1316" font-size="9" fill="#334155">rank: <tspan fill="#059669">Integer</tspan></text>
<text x="200" y="1316" font-size="7.5" fill="#9ca3af">— 차수 중심성</text>
<text x="50" y="1348" font-size="10" font-weight="700" fill="#1e40af">})</text>

<!-- UNIQUE constraint note -->
<rect x="50" y="1334" width="244" height="16" rx="4" fill="#eff6ff" stroke="#93c5fd" stroke-width="0.6"/>
<text x="172" y="1346" text-anchor="middle" font-size="7.5" fill="#3b82f6" font-weight="600">UNIQUE: (name, kb_id)</text>


<!-- RELATES_TO Edge Schema -->
<rect x="335" y="1155" width="270" height="14" rx="4" fill="url(#neoGrad)"/>
<text x="470" y="1166" text-anchor="middle" font-size="8.5" font-weight="700" fill="white">[:RELATES_TO] 관계 스키마</text>

<rect x="335" y="1173" width="270" height="184" rx="8" fill="#dbeafe" stroke="#3b82f6" stroke-width="1.5"/>
<text x="350" y="1194" font-size="10" font-weight="700" fill="#1e40af">[:RELATES_TO {</text>
<text x="366" y="1212" font-size="9" fill="#334155">weight: <tspan fill="#059669">Float</tspan></text>
<text x="470" y="1212" font-size="7.5" fill="#9ca3af">— 관계 강도</text>
<text x="366" y="1228" font-size="9" fill="#334155">keywords: <tspan fill="#059669">[String]</tspan></text>
<text x="470" y="1228" font-size="7.5" fill="#9ca3af">— 관계 키워드</text>
<text x="366" y="1244" font-size="9" fill="#334155">kb_id: <tspan fill="#059669">String</tspan></text>
<text x="470" y="1244" font-size="7.5" fill="#9ca3af">— 지식베이스 ID</text>
<text x="366" y="1260" font-size="9" fill="#334155">source_id: <tspan fill="#059669">[String]</tspan></text>
<text x="470" y="1260" font-size="7.5" fill="#9ca3af">— 원본 문서 ID 목록</text>

<!-- source_chunk_ids 강조 -->
<rect x="350" y="1268" width="244" height="18" rx="4" fill="#fee2e2" stroke="#fca5a5" stroke-width="1"/>
<text x="366" y="1282" font-size="9" font-weight="700" fill="#dc2626">source_chunk_ids: <tspan fill="#991b1b">[String]</tspan></text>
<text x="518" y="1282" font-size="7.5" fill="#dc2626">⭐ 신규</text>

<text x="366" y="1300" font-size="9" fill="#334155">created_at: <tspan fill="#059669">Float</tspan></text>
<text x="470" y="1300" font-size="7.5" fill="#9ca3af">— 생성 타임스탬프</text>
<text x="350" y="1348" font-size="10" font-weight="700" fill="#1e40af">}]</text>

<!-- 관계 화살표 표현 -->
<rect x="350" y="1334" width="244" height="16" rx="4" fill="#eff6ff" stroke="#93c5fd" stroke-width="0.6"/>
<text x="472" y="1346" text-anchor="middle" font-size="7.5" fill="#3b82f6" font-weight="600">(:Entity)-[:RELATES_TO]->(:Entity)</text>


<!-- Meta Node Schemas -->
<rect x="635" y="1155" width="270" height="14" rx="4" fill="#64748b"/>
<text x="770" y="1166" text-anchor="middle" font-size="8.5" font-weight="700" fill="white">메타 노드 스키마</text>

<rect x="635" y="1173" width="270" height="80" rx="8" fill="#f1f5f9" stroke="#94a3b8" stroke-width="1.2"/>
<text x="650" y="1192" font-size="10" font-weight="700" fill="#334155">(:KBGraph {</text>
<text x="666" y="1208" font-size="9" fill="#6b7280">kb_id: String</text>
<text x="666" y="1224" font-size="9" fill="#6b7280">source_id: [String]</text>
<text x="666" y="1240" font-size="9" fill="#6b7280">graph_json: String</text>
<text x="650" y="1248" font-size="10" font-weight="700" fill="#334155"></text>

<rect x="635" y="1260" width="270" height="80" rx="8" fill="#f1f5f9" stroke="#94a3b8" stroke-width="1.2"/>
<text x="650" y="1279" font-size="10" font-weight="700" fill="#334155">(:SubGraph {</text>
<text x="666" y="1295" font-size="9" fill="#6b7280">kb_id: String</text>
<text x="666" y="1311" font-size="9" fill="#6b7280">doc_id: String</text>
<text x="666" y="1327" font-size="9" fill="#6b7280">graph_json: String</text>
<text x="650" y="1335" font-size="10" font-weight="700" fill="#334155"></text>


<!-- ================================================================
     연결 구조 다이어그램
     ================================================================ -->
<rect x="35" y="1370" width="870" height="14" rx="4" fill="#dc2626"/>
<text x="470" y="1381" text-anchor="middle" font-size="8.5" font-weight="700" fill="white">핵심 연결 구조 — source_chunk_ids 가 그래프와 청크를 연결</text>

<rect x="35" y="1388" width="870" height="122" rx="8" fill="#fff5f5" stroke="#fecaca" stroke-width="1"/>

<!-- Entity box -->
<rect x="55" y="1402" width="200" height="70" rx="8" fill="#dbeafe" stroke="#3b82f6" stroke-width="1.5"/>
<text x="155" y="1420" text-anchor="middle" font-size="10" font-weight="700" fill="#1e40af">(:Entity)</text>
<text x="70" y="1438" font-size="8.5" fill="#6b7280">name: "퇴직연금"</text>
<text x="70" y="1454" font-size="8.5" font-weight="600" fill="#dc2626">source_chunk_ids:</text>
<text x="70" y="1466" font-size="8.5" font-weight="600" fill="#dc2626">["c042","c108"]</text>

<!-- Arrow E→R -->
<line x1="255" y1="1437" x2="310" y2="1437" stroke="#7c3aed" stroke-width="2" marker-end="url(#ah-purple)"/>
<text x="278" y="1430" text-anchor="middle" font-size="7.5" fill="#7c3aed" font-weight="600">RELATES_TO</text>

<!-- Relation box -->
<rect x="312" y="1402" width="200" height="70" rx="8" fill="#ede9fe" stroke="#8b5cf6" stroke-width="1.5"/>
<text x="412" y="1420" text-anchor="middle" font-size="10" font-weight="700" fill="#5b21b6">[:RELATES_TO]</text>
<text x="327" y="1438" font-size="8.5" fill="#6b7280">to: "IRP" · weight: 15</text>
<text x="327" y="1454" font-size="8.5" font-weight="600" fill="#dc2626">source_chunk_ids:</text>
<text x="327" y="1466" font-size="8.5" font-weight="600" fill="#dc2626">["c042","c215"]</text>

<!-- Arrow R→Chunk -->
<line x1="512" y1="1437" x2="575" y2="1420" stroke="#dc2626" stroke-width="2" stroke-dasharray="4,2"/>
<line x1="512" y1="1437" x2="575" y2="1454" stroke="#dc2626" stroke-width="2" stroke-dasharray="4,2"/>

<!-- Chunk boxes -->
<rect x="577" y="1398" width="155" height="40" rx="6" fill="#d1fae5" stroke="#059669" stroke-width="1.2"/>
<text x="654" y="1414" text-anchor="middle" font-size="8.5" font-weight="700" fill="#065f46">ES Chunk c042</text>
<text x="654" y="1430" text-anchor="middle" font-size="7.5" fill="#047857">퇴직연금_가이드.pdf p.23</text>

<rect x="577" y="1442" width="155" height="40" rx="6" fill="#d1fae5" stroke="#059669" stroke-width="1.2"/>
<text x="654" y="1458" text-anchor="middle" font-size="8.5" font-weight="700" fill="#065f46">ES Chunk c108</text>
<text x="654" y="1474" text-anchor="middle" font-size="7.5" fill="#047857">연금세금안내.pdf p.5</text>

<rect x="745" y="1442" width="145" height="40" rx="6" fill="#d1fae5" stroke="#059669" stroke-width="1.2"/>
<text x="817" y="1458" text-anchor="middle" font-size="8.5" font-weight="700" fill="#065f46">ES Chunk c215</text>
<text x="817" y="1474" text-anchor="middle" font-size="7.5" fill="#047857">IRP안내서.pdf p.12</text>

<!-- Arrow labels -->
<text x="548" y="1413" text-anchor="middle" font-size="7" fill="#dc2626" font-weight="700">역추적</text>
<text x="548" y="1457" text-anchor="middle" font-size="7" fill="#dc2626" font-weight="700">역추적</text>


<!-- ================================================================
     핵심 변경 사항 요약
     ================================================================ -->
<rect x="20" y="1534" width="900" height="16" rx="8" fill="#1e293b"/>
<text x="470" y="1546" text-anchor="middle" font-size="9.5" font-weight="700" fill="white">핵심 변경 사항 요약 — 기존 대비 인덱싱 파이프라인 차이</text>

<rect x="20" y="1554" width="900" height="200" rx="10" fill="#f8fafc" stroke="#cbd5e1" stroke-width="1"/>

<!-- 변경 1 -->
<rect x="35" y="1568" width="425" height="80" rx="8" fill="#fef2f2" stroke="#fecaca" stroke-width="1"/>
<rect x="35" y="1568" width="425" height="14" rx="4" fill="#dc2626"/>
<text x="247" y="1579" text-anchor="middle" font-size="8" font-weight="700" fill="white">❌ 제거된 것</text>
<text x="50" y="1600" font-size="9.5" fill="#991b1b" font-weight="600">1. LLM description 요약 생성 단계 완전 제거</text>
<text x="50" y="1618" font-size="9" fill="#6b7280">   — 엔티티/릴레이션의 description을 LLM이 만들지 않음</text>
<text x="50" y="1636" font-size="9" fill="#6b7280">   — 할루시네이션 가능성 원천 차단</text>

<!-- 변경 2 -->
<rect x="475" y="1568" width="430" height="80" rx="8" fill="#f0fdf4" stroke="#bbf7d0" stroke-width="1"/>
<rect x="475" y="1568" width="430" height="14" rx="4" fill="#059669"/>
<text x="690" y="1579" text-anchor="middle" font-size="8" font-weight="700" fill="white">⭐ 추가된 것</text>
<text x="490" y="1600" font-size="9.5" fill="#065f46" font-weight="600">1. source_chunk_ids 속성 추가 (Entity + Relation)</text>
<text x="490" y="1618" font-size="9" fill="#6b7280">   — LLM 추출 시 어떤 청크에서 나왔는지 추적</text>
<text x="490" y="1636" font-size="9" fill="#6b7280">   — 병합 시 합집합으로 유지</text>

<!-- 변경 3 -->
<rect x="35" y="1658" width="425" height="80" rx="8" fill="#fef2f2" stroke="#fecaca" stroke-width="1"/>
<rect x="35" y="1658" width="425" height="14" rx="4" fill="#dc2626"/>
<text x="247" y="1669" text-anchor="middle" font-size="8" font-weight="700" fill="white">❌ 변경된 저장소</text>
<text x="50" y="1690" font-size="9.5" fill="#991b1b" font-weight="600">2. ES에 엔티티/릴레이션 전체 저장 → 불필요</text>
<text x="50" y="1708" font-size="9" fill="#6b7280">   — ES knowledge_graph_kwd 필드 의존 제거</text>
<text x="50" y="1726" font-size="9" fill="#6b7280">   — Neo4j가 그래프 검색의 주 저장소로 전환</text>

<!-- 변경 4 -->
<rect x="475" y="1658" width="430" height="80" rx="8" fill="#f0fdf4" stroke="#bbf7d0" stroke-width="1"/>
<rect x="475" y="1658" width="430" height="14" rx="4" fill="#059669"/>
<text x="690" y="1669" text-anchor="middle" font-size="8" font-weight="700" fill="white">⭐ 유지/보강된 것</text>
<text x="490" y="1690" font-size="9.5" fill="#065f46" font-weight="600">2. PageRank, 커뮤니티 리포트는 그대로 유지</text>
<text x="490" y="1708" font-size="9" fill="#6b7280">   — 커뮤니티 리포트: ES에 텍스트 검색용 유지</text>
<text x="490" y="1726" font-size="9" fill="#6b7280">   — 엔티티 벡터: ES에 선택적 유지 (Option A)</text>


<!-- ================================================================
     Bottom: 인덱싱 → 검색 연결
     ================================================================ -->
<rect x="20" y="1768" width="900" height="16" rx="8" fill="url(#hGrad)"/>
<text x="470" y="1780" text-anchor="middle" font-size="9.5" font-weight="700" fill="white">인덱싱 결과 → 검색 시 활용</text>

<rect x="20" y="1788" width="900" height="82" rx="10" fill="#f0fdfa" stroke="#0d9488" stroke-width="1.5"/>

<!-- 인덱싱 결과 -->
<rect x="40" y="1800" width="180" height="56" rx="8" fill="#dbeafe" stroke="#3b82f6" stroke-width="1.2"/>
<text x="130" y="1820" text-anchor="middle" font-size="9.5" font-weight="700" fill="#1e40af">Neo4j 그래프</text>
<text x="130" y="1836" text-anchor="middle" font-size="8" fill="#3b82f6">Entity + Relation</text>
<text x="130" y="1848" text-anchor="middle" font-size="7.5" fill="#dc2626" font-weight="600">+ source_chunk_ids</text>

<line x1="220" y1="1828" x2="260" y2="1828" stroke="#0d9488" stroke-width="1.5" marker-end="url(#ah-teal)"/>

<rect x="262" y="1800" width="155" height="56" rx="8" fill="#f0fdfa" stroke="#0d9488" stroke-width="1.2"/>
<text x="339" y="1820" text-anchor="middle" font-size="9" font-weight="700" fill="#0f766e">그래프 탐색</text>
<text x="339" y="1836" text-anchor="middle" font-size="8" fill="#047857">Cypher 쿼리</text>
<text x="339" y="1848" text-anchor="middle" font-size="8" fill="#047857">N-Hop 순회</text>

<line x1="417" y1="1828" x2="457" y2="1828" stroke="#dc2626" stroke-width="1.5" marker-end="url(#ah-red)"/>

<rect x="459" y="1800" width="155" height="56" rx="8" fill="#fee2e2" stroke="#dc2626" stroke-width="1.2"/>
<text x="536" y="1820" text-anchor="middle" font-size="9" font-weight="700" fill="#991b1b">chunk_ids 역추적</text>
<text x="536" y="1836" text-anchor="middle" font-size="8" fill="#b91c1c">source_chunk_ids</text>
<text x="536" y="1848" text-anchor="middle" font-size="8" fill="#b91c1c">→ ES multi-get</text>

<line x1="614" y1="1828" x2="654" y2="1828" stroke="#059669" stroke-width="1.5" marker-end="url(#ah-green)"/>

<rect x="656" y="1800" width="120" height="56" rx="8" fill="#d1fae5" stroke="#059669" stroke-width="1.2"/>
<text x="716" y="1820" text-anchor="middle" font-size="9" font-weight="700" fill="#065f46">원본 청크</text>
<text x="716" y="1836" text-anchor="middle" font-size="8" fill="#047857">원문 텍스트</text>
<text x="716" y="1848" text-anchor="middle" font-size="8" fill="#047857">출처 정보</text>

<line x1="776" y1="1828" x2="800" y2="1828" stroke="#94a3b8" stroke-width="1.5" marker-end="url(#ah)"/>

<rect x="802" y="1800" width="105" height="56" rx="8" fill="#fef3c7" stroke="#f59e0b" stroke-width="1.5"/>
<text x="854" y="1818" text-anchor="middle" font-size="9.5" font-weight="700" fill="#78350f">최종 응답</text>
<text x="854" y="1834" text-anchor="middle" font-size="7.5" fill="#92400e">✓ 원본 근거</text>
<text x="854" y="1848" text-anchor="middle" font-size="7.5" fill="#92400e">✓ 출처 추적</text>

</svg>